<svg width="91" height="91" viewBox="0 0 91 91" fill="none" xmlns="http://www.w3.org/2000/svg">
<g clip-path="url(#clip0_7_122)">
<path d="M61.4844 41.469C60.8927 41.1345 60.1416 41.3428 59.8069 41.9345C59.4724 42.5261 59.6807 43.279 60.2733 43.6135C61.1822 44.1311 61.7369 44.7085 62.1036 45.3052C60.5857 45.8384 59.2403 46.0577 58.0514 46.0577C56.3116 46.0561 54.8885 45.5969 53.6884 44.8932C52.4915 44.188 51.5236 43.2238 50.7897 42.2233C49.5801 40.5743 48.0062 39.1055 46.1512 38.0339C44.2989 36.9655 42.1559 36.298 39.856 36.298C37.8393 36.2966 35.7139 36.8157 33.6082 37.9722C32.7472 38.4441 32.0009 38.9963 31.3509 39.599C28.7891 40.5853 26.5816 40.9402 24.7141 40.9402C22.0536 40.9402 20.0662 40.2254 18.7375 39.5231C18.074 39.1728 17.5778 38.8241 17.2566 38.5717C17.0956 38.4439 16.9783 38.3428 16.9054 38.2767L16.8297 38.204L16.8178 38.193H16.8172C16.3453 37.7085 15.569 37.696 15.0806 38.1661C14.5915 38.6379 14.5772 39.4174 15.0491 39.9065C15.1177 39.976 15.9643 40.8423 17.5849 41.7007C18.2942 42.0763 19.1637 42.4455 20.1681 42.7469C19.9013 43.1224 19.5369 43.6715 19.14 44.3705C18.377 45.7165 17.5004 47.6054 17.0538 49.8335C16.9205 50.4993 17.3529 51.148 18.0196 51.2821C18.6863 51.4145 19.3355 50.982 19.4681 50.3148C19.8428 48.4387 20.6081 46.7708 21.2819 45.5857C21.618 44.9924 21.9298 44.5205 22.1539 44.2032C22.2659 44.044 22.3558 43.9224 22.4159 43.8435C22.4457 43.8055 22.4686 43.7756 22.4822 43.7582L22.4964 43.7408L22.498 43.7392L22.4987 43.7376C22.6123 43.5988 22.6881 43.4425 22.7313 43.2785C23.3579 43.3556 24.0158 43.4031 24.7141 43.4015C26.0088 43.4031 27.4265 43.2501 28.9533 42.9029C28.1965 44.5345 27.8851 46.2372 27.8842 47.7977C27.8872 49.3695 28.1864 50.7959 28.7197 51.932C29.0107 52.5475 29.7453 52.8093 30.3599 52.5191C30.9745 52.2287 31.2372 51.4934 30.946 50.8797V50.8781C30.6037 50.1648 30.3432 49.0414 30.3473 47.7977C30.3464 46.4566 30.6359 44.9796 31.3303 43.632C32.0284 42.2844 33.1126 41.0552 34.7924 40.1305C36.5651 39.16 38.2575 38.7623 39.856 38.7608C41.676 38.7608 43.3907 39.2864 44.9211 40.1667C46.4502 41.0488 47.786 42.2906 48.8036 43.6791C49.699 44.9005 50.8969 46.1061 52.4386 47.015C53.977 47.9239 55.866 48.5218 58.0514 48.5202C59.4975 48.5202 61.0685 48.2583 62.7553 47.6838L62.7593 47.7722C62.7593 48.375 62.6654 48.9241 62.5716 49.3122C62.525 49.5063 62.4784 49.6595 62.4461 49.7589C62.4296 49.8077 62.4169 49.844 62.4091 49.8644L62.402 49.8835L62.4013 49.8865H62.402C62.1526 50.5162 62.4596 51.2294 63.0891 51.4818C63.7203 51.7344 64.4374 51.4266 64.69 50.7954C64.7214 50.7071 65.2171 49.4779 65.2218 47.772C65.2218 46.7935 65.0504 45.6449 64.4817 44.5105C63.9168 43.3768 62.9416 42.288 61.4844 41.469Z" fill="white"/>
<path d="M64.23 33.2463C60.8454 33.2463 58.1273 31.9997 56.2472 30.3681C55.3092 29.5539 54.5879 28.6433 54.1139 27.7724C53.6374 26.8998 53.4188 26.0697 53.422 25.448C53.422 24.7678 52.8705 24.2172 52.1905 24.2172C51.5104 24.2172 50.9595 24.7678 50.9595 25.448C50.9627 26.6062 51.3247 27.7929 51.9512 28.948C52.6069 30.1505 53.5647 31.3181 54.7822 32.3468C54.5367 32.6877 54.1981 33.1265 53.7659 33.5966C52.8278 34.6207 51.4756 35.7552 49.8612 36.328C49.2207 36.5568 48.8869 37.2622 49.1158 37.9012C49.3446 38.5419 50.0493 38.8766 50.6891 38.6475C52.8801 37.8601 54.5202 36.4244 55.6328 35.2028C56.1283 34.6568 56.514 34.1583 56.7989 33.7591C58.8361 34.9346 61.3521 35.711 64.2304 35.7094C64.9097 35.7094 65.462 35.1587 65.462 34.4785C65.4615 33.7987 64.9093 33.2463 64.23 33.2463Z" fill="white"/>
<path d="M56.0213 57.3259C53.7177 57.3259 51.8872 56.8809 50.4165 56.2009C48.2152 55.1784 46.7872 53.6068 45.8885 52.0398C45.4405 51.2586 45.1312 50.4808 44.9362 49.7975C44.7405 49.1174 44.6639 48.521 44.6655 48.1596C44.6655 47.4796 44.1149 46.9286 43.4347 46.9286C42.7538 46.9286 42.2032 47.4794 42.2032 48.1596C42.2032 48.6031 42.256 49.0938 42.3642 49.6334C42.5519 50.5738 42.9093 51.6612 43.4886 52.7814C44.3573 54.4605 45.7364 56.2213 47.7972 57.5597C48.3132 57.8972 48.8718 58.2034 49.4729 58.4778C49.5667 58.8818 49.697 59.6013 49.6961 60.4692C49.6961 61.1005 49.6282 61.8041 49.4374 62.5254C49.2465 63.2464 48.9356 63.9819 48.4417 64.6966C48.0544 65.2568 48.1939 66.0235 48.7534 66.4103C49.3129 66.7969 50.0797 66.6581 50.4664 66.0994C51.1386 65.1274 51.5645 64.1175 51.8186 63.1549C52.0735 62.1909 52.1586 61.2741 52.1586 60.4692C52.1586 60.0668 52.1366 59.6944 52.1034 59.3537C53.2901 59.6299 54.5902 59.7908 56.0213 59.7892C56.7008 59.7892 57.2523 59.2369 57.2523 58.5567C57.2523 57.8782 56.7008 57.3259 56.0213 57.3259Z" fill="white"/>
<path d="M72.747 38.8293C72.1372 38.3039 71.4793 37.8731 70.7849 37.5668C70.0913 37.2608 69.3584 37.0777 68.608 37.0777C67.928 37.0777 67.3764 37.6283 67.3764 38.3085C67.3764 38.9903 67.928 39.5409 68.608 39.5409C69.0608 39.5393 69.6337 39.6971 70.2357 40.0459C71.1382 40.5634 72.0765 41.4928 72.7588 42.6573C73.4452 43.8202 73.8799 45.2042 73.8792 46.6338C73.8737 48.2071 73.3782 49.8481 72.037 51.4799C71.6039 52.0052 71.678 52.78 72.2026 53.2138C72.7266 53.6463 73.5029 53.5722 73.9361 53.0482C75.626 51.0092 76.3471 48.7481 76.3415 46.6338C76.3415 45.3493 76.0844 44.1202 75.6521 42.9998C75.0018 41.3206 73.9659 39.8832 72.747 38.8293Z" fill="white"/>
<path d="M29.8724 32.2649V32.2633C30.7182 31.2612 31.9231 30.4754 33.2966 29.9469C34.6678 29.4167 36.1985 29.1515 37.6305 29.1531C39.0253 29.1499 40.324 29.4071 41.2765 29.8505C41.8943 30.1345 42.6255 29.8663 42.9113 29.2478C43.196 28.6307 42.9262 27.9003 42.3093 27.6145C40.9335 26.9817 39.3168 26.6913 37.6306 26.6899C35.8997 26.6899 34.0935 27.0023 32.4115 27.6475C30.7335 28.2945 29.1705 29.2825 27.9926 30.6726C27.5531 31.1917 27.6178 31.9695 28.137 32.4083C28.6558 32.8487 29.433 32.7824 29.8724 32.2649Z" fill="white"/>
<path d="M85.6026 28.7066L85.6037 28.7086L85.6026 28.7066Z" fill="white"/>
<path d="M59.7472 69.8155V69.8174H59.7461L59.7472 69.8155Z" fill="white"/>
<path d="M87.4835 37.0429C87.2658 36.822 87.0323 36.6121 86.7957 36.4055C86.9194 35.7159 86.9912 35.0137 86.9912 34.3005C86.9919 32.4101 86.5415 30.485 85.6035 28.7082C84.5312 26.671 82.9429 25.0551 81.0888 23.96C79.7919 23.1931 78.3654 22.682 76.8868 22.4436C76.528 21.1671 75.9653 19.952 75.2094 18.8491C73.951 17.0124 72.1616 15.4914 69.9721 14.5492C68.406 13.8754 66.7625 13.5519 65.1484 13.5519C65.1484 13.5519 65.0986 13.5503 65.0079 13.5583C62.9581 13.5821 60.9629 14.1201 59.1978 15.1032C58.5075 14.2716 57.7091 13.5315 56.8206 12.9082C54.8734 11.5401 52.4922 10.729 49.9446 10.7037C49.9153 10.7021 49.8799 10.7007 49.8365 10.6991C49.831 10.6991 49.8255 10.6991 49.8193 10.6991H49.8177H49.8161H49.8154C49.8115 10.6991 49.8076 10.6991 49.8037 10.6991C49.78 10.6991 49.7516 10.7007 49.7153 10.7021C47.4968 10.7195 45.4005 11.3318 43.6094 12.392C42.8331 12.8497 42.1246 13.4003 41.4745 14.0126C39.6189 12.8559 37.4262 12.1805 35.0908 12.1695L35.0823 12.1681H35.027C35.0254 12.1681 35.0245 12.1681 35.0231 12.1681C35.0199 12.1681 35.0167 12.1681 35.013 12.1681C34.9845 12.1681 34.949 12.1695 34.904 12.1727C32.4195 12.1963 30.0895 12.9665 28.1686 14.273C27.0553 15.0289 26.0809 15.9647 25.2752 17.0359C24.2559 16.7598 23.1917 16.61 22.1043 16.61C21.1994 16.61 20.2818 16.7126 19.3682 16.9209C16.6777 17.5378 14.3796 19.0132 12.7327 20.9841H12.7336C11.5778 22.3647 10.7439 23.9931 10.2862 25.7495C8.53143 26.3445 6.87779 27.3418 5.49466 28.7507C5.49395 28.7523 5.49235 28.7539 5.49075 28.7555C3.17114 31.1208 2.00342 34.2151 2.00431 37.2875V37.2921V37.2985C2.00431 37.2985 2.00431 37.3015 2.00431 37.3047V37.3378H2.00502C2.00804 38.4059 2.15254 39.4711 2.43425 40.5062C0.852948 42.6225 0.000889478 45.1929 8.06036e-07 47.8236C-0.000710131 49.7706 0.468864 51.7509 1.44463 53.5766C2.54125 55.6264 4.15401 57.2501 6.03017 58.3499C7.34612 59.1214 8.79074 59.6313 10.2873 59.8711C11.0842 62.0124 12.4506 63.8602 14.199 65.2282C16.2787 66.8584 18.9022 67.8224 21.7133 67.8224C22.0053 67.8224 22.2964 67.8132 22.5874 67.7909H22.5945H22.5984H22.5993H22.6C23.8409 67.701 25.03 67.4218 26.1376 66.991C26.8738 68.1711 27.7991 69.2141 28.8738 70.0743C30.9528 71.739 33.5966 72.7332 36.4306 72.7458C36.4409 72.7474 36.4494 72.7474 36.4583 72.7474C36.4679 72.7474 36.4771 72.7474 36.486 72.7474H36.4876C36.4885 72.7474 36.4885 72.7474 36.4885 72.7474H36.4908H36.5034C36.5075 72.7474 36.5091 72.7474 36.513 72.7474L36.5438 72.7458H36.5525C36.7789 72.7442 37.0063 72.7348 37.2325 72.7206H37.2357L37.369 72.7174C38.3835 72.6431 39.3635 72.4458 40.2922 72.1399C41.4622 73.8773 43.0915 75.3431 45.1074 76.3153H45.1065C46.8074 77.1357 48.6221 77.5287 50.403 77.5287C52.137 77.5287 53.8333 77.1517 55.3891 76.4541C57.6503 78.8556 60.8387 80.2979 64.2682 80.3013C65.0202 80.3013 65.7807 80.2318 66.5414 80.0882C69.463 79.5392 71.9664 77.9753 73.718 75.8404H73.7173C74.8612 74.4503 75.6843 72.8093 76.1245 71.0387C78.145 70.84 80.1499 70.1362 81.9219 68.8895C83.608 67.706 84.9146 66.1595 85.7902 64.4334C86.6661 62.7086 87.1174 60.8055 87.1174 58.8852C87.1174 57.6055 86.9091 56.3209 86.4996 55.0822C87.5512 54.2255 88.4813 53.1808 89.223 51.958C90.4224 49.9855 90.9998 47.7859 90.9998 45.6239C90.9993 42.4633 89.774 39.3625 87.4835 37.0429ZM85.5395 49.7202C84.3015 51.7588 82.3061 53.0276 80.1262 53.4048C79.4556 53.5199 79.006 54.1575 79.1209 54.8263C79.2361 55.4971 79.8729 55.9467 80.5428 55.8316C81.0439 55.7464 81.5371 55.6217 82.0207 55.464C82.5475 56.5528 82.8073 57.7205 82.8073 58.885C82.808 60.1301 82.5139 61.3671 81.9475 62.4827C81.3801 63.5985 80.5437 64.5908 79.4455 65.3642C78.0625 66.333 76.4924 66.7955 74.9278 66.7969C74.8056 66.7969 74.6833 66.7875 74.561 66.7812C74.535 66.5761 74.5096 66.3726 74.4718 66.1689V66.1673C74.202 64.7393 73.6466 63.4327 72.8835 62.2982L72.7904 62.1593L72.6642 62.0503C71.7307 61.2519 70.4928 59.939 69.5373 58.601C69.0585 57.9334 68.649 57.2581 68.3737 56.657C68.095 56.0557 67.9674 55.5301 67.972 55.2194C67.972 55.0806 67.9926 54.9875 68.0156 54.9244C68.0399 54.8629 68.0628 54.8265 68.111 54.7762C68.5914 54.2965 68.5914 53.5153 68.111 53.0356C67.6297 52.5545 66.8502 52.5545 66.3696 53.0356V53.0342C66.0699 53.3339 65.8435 53.6952 65.7045 54.0739C65.5657 54.4527 65.5097 54.8425 65.5097 55.2196C65.5143 56.0733 65.7724 56.8811 66.1353 57.6827C66.6854 58.8788 67.5058 60.067 68.3918 61.151C69.2258 62.1705 70.1134 63.084 70.9078 63.7846C71.4546 64.6273 71.8539 65.5773 72.0512 66.6234C72.134 67.0637 72.1797 67.5007 72.1861 67.9219L72.1868 67.9283C72.1877 67.9852 72.1884 68.0405 72.1884 68.0972C72.1884 69.9593 71.5264 71.7185 70.388 73.1056C69.2478 74.4912 67.6437 75.4947 65.7448 75.8528C65.2479 75.9461 64.7547 75.9918 64.2695 75.9918C61.658 75.9934 59.2421 74.6837 57.7905 72.5944C58.5717 71.8022 59.2374 70.8713 59.747 69.8173C60.379 68.5108 60.7103 67.1284 60.7711 65.7619C60.8012 65.0801 60.2742 64.5059 59.5956 64.4758C58.9156 64.446 58.3402 64.9728 58.3102 65.6516C58.2636 66.6977 58.0129 67.7454 57.5292 68.7441L57.5285 68.7473C57.0124 69.8171 56.2897 70.7118 55.4306 71.4205L55.4259 71.4235C54.0145 72.5818 52.2281 73.2193 50.4033 73.2193C49.253 73.2193 48.0876 72.9668 46.9791 72.4334C44.9261 71.4423 43.5005 69.6909 42.8701 67.6776L42.8692 67.676C42.6285 66.912 42.5039 66.1121 42.5039 65.3059C42.5039 64.1556 42.7565 62.9911 43.292 61.877C43.5879 61.2647 43.33 60.5294 42.7176 60.2344C42.1055 59.9394 41.3693 60.1965 41.0742 60.8088C40.375 62.2574 40.0414 63.7958 40.0414 65.306C40.0414 66.0381 40.1251 66.7626 40.2766 67.4726C39.3148 67.998 38.23 68.3325 37.0574 68.4196H37.0551C36.8642 68.4322 36.6748 68.4384 36.4887 68.4384C34.6401 68.4384 32.9272 67.7977 31.5654 66.7091C30.3803 65.7621 29.4723 64.4794 28.9871 62.9944C29.854 62.1392 30.5721 61.1389 31.0968 60.0295C31.387 59.4156 31.1243 58.6803 30.5097 58.3899C29.8951 58.0994 29.1605 58.3614 28.8701 58.9769C28.3826 60.0088 27.6757 60.9242 26.8054 61.6579C25.573 62.6976 24.0164 63.3684 22.2831 63.493H22.2806C22.0904 63.5056 21.9011 63.5134 21.7142 63.5134C17.804 63.515 14.4667 60.6306 13.9033 56.7647L13.9019 56.7551L13.9003 56.7455C13.8702 56.5626 13.8489 56.3699 13.8347 56.1712C13.8213 55.9785 13.8144 55.7893 13.8144 55.6C13.8144 55.1012 13.861 54.6137 13.9491 54.1388C14.0723 53.4696 13.6305 52.8275 12.9615 52.7027C12.2932 52.5795 11.651 53.0216 11.5271 53.6906C11.4127 54.3091 11.3519 54.9482 11.3519 55.6L11.3544 55.6709C10.2475 55.5477 9.17287 55.196 8.21026 54.6311C6.99598 53.9193 5.96015 52.8796 5.2453 51.5446C4.60936 50.3548 4.31041 49.083 4.30953 47.8253C4.30953 46.2031 4.81305 44.6096 5.74473 43.2778C6.10127 43.7828 6.50774 44.2625 6.96292 44.7089C8.00054 45.7284 9.20433 46.4843 10.4803 46.9765C11.1139 47.2228 11.8272 46.9072 12.0724 46.2728C12.3179 45.6385 12.0024 44.9252 11.3688 44.6805C10.3952 44.3033 9.4816 43.7307 8.68855 42.9511L8.68695 42.9497C7.98952 42.2663 7.44743 41.487 7.05677 40.6521C6.56213 39.595 6.31366 38.4477 6.31366 37.299C6.31437 35.2997 7.06157 33.3131 8.56929 31.7715C9.85128 30.4665 11.4649 29.7026 13.142 29.4739H13.1436H13.1452L13.1499 29.4723C13.5043 29.425 13.8608 29.3998 14.2189 29.4014C16.2176 29.403 18.208 30.1511 19.749 31.6579C20.2349 32.1328 21.0144 32.125 21.4902 31.6391C21.966 31.1531 21.9573 30.3736 21.4714 29.8985C19.5106 27.9781 16.9679 26.9966 14.421 26.9478C14.7114 25.769 15.2653 24.674 16.0384 23.7508C17.1082 22.4728 18.5798 21.526 20.3319 21.122C20.927 20.9862 21.5203 20.9201 22.1039 20.9201C23.1359 20.9201 24.1388 21.1252 25.0657 21.5007C24.8021 22.4175 24.6571 23.3849 24.6571 24.3836C24.6571 25.0636 25.2086 25.6144 25.8886 25.6144C26.5686 25.6144 27.1194 25.0638 27.1194 24.3836C27.1194 23.3058 27.3364 22.2771 27.7239 21.3429C28.3186 19.9164 29.3239 18.6982 30.5886 17.8382C31.8559 16.9783 33.3762 16.4796 35.025 16.478C37.3974 16.4796 39.5167 17.5179 40.9692 19.1731L40.9717 19.1747C42.1929 20.5648 42.9291 22.3826 42.93 24.3834C42.93 25.0634 43.4806 25.6142 44.1615 25.6142C44.8417 25.6142 45.3923 25.0636 45.3923 24.3834C45.3932 22.1096 44.6577 19.9983 43.412 18.2892C44.0495 17.4057 44.8621 16.6576 45.8025 16.1022C46.9796 15.4064 48.3462 15.0088 49.8168 15.0088C51.506 15.0088 53.0603 15.5358 54.3441 16.4369C55.6277 17.3362 56.6329 18.6097 57.2001 20.0945L57.1994 20.0931C57.534 20.972 57.7178 21.9172 57.7185 22.9144C57.7185 23.5944 58.2693 24.1454 58.9495 24.1454C59.6295 24.1454 60.181 23.5946 60.181 22.9144C60.181 21.8981 60.0287 20.9167 59.7557 19.9889C61.2137 18.6303 63.149 17.8618 65.146 17.8618C66.189 17.8618 67.2463 18.0701 68.2688 18.5087C69.6946 19.1226 70.8394 20.0993 71.6559 21.289C72.4717 22.4772 72.953 23.8769 73.0344 25.3222C73.0423 25.4706 73.047 25.6204 73.047 25.7703C73.0462 26.8132 72.8402 27.8691 72.4017 28.8916C72.1333 29.5165 72.4214 30.2406 73.0462 30.5088C73.6711 30.7786 74.3952 30.4884 74.6635 29.8635C75.1203 28.8031 75.383 27.7033 75.4721 26.6083C76.6792 26.6888 77.8549 27.0548 78.8963 27.6702C80.0852 28.3741 81.0966 29.3996 81.7902 30.7157V30.7171C82.3969 31.866 82.681 33.0904 82.6817 34.3008C82.6817 34.8562 82.6177 35.4052 82.5002 35.9434C81.7569 35.6562 80.9939 35.4589 80.2247 35.3502C79.5516 35.2554 78.9293 35.7243 78.8346 36.3995C78.7399 37.0719 79.2086 37.695 79.8824 37.7897C80.6548 37.8987 81.4162 38.1212 82.1467 38.4651C82.2761 38.675 82.467 38.8501 82.7108 38.9542C82.8631 39.0189 83.021 39.0506 83.1772 39.052C83.6315 39.355 84.0451 39.6943 84.4142 40.0699L84.3977 40.0526L84.4174 40.0731C85.8919 41.5627 86.6903 43.5746 86.6896 45.6243C86.6898 47.0234 86.3206 48.4358 85.5395 49.7202Z" fill="white"/>
</g>
<defs>
<clipPath id="clip0_7_122">
<rect width="91" height="91" fill="white"/>
</clipPath>
</defs>
</svg>
