<svg width="31" height="27" viewBox="0 0 31 27" fill="none" xmlns="http://www.w3.org/2000/svg">
<path d="M2.375 9.25H7.875L14.75 1V25.75L7.875 18.875H1V9.25H2.375Z" stroke="black" stroke-width="2" stroke-linecap="round" stroke-linejoin="round"/>
<path d="M19.7 23.6875C22.3382 23.58 24.8279 22.4374 26.6295 20.5071C28.4311 18.5768 29.3995 16.0144 29.325 13.375C29.3995 10.7356 28.4311 8.1732 26.6295 6.24291C24.8279 4.31263 22.3382 3.16996 19.7 3.0625"/>
<path d="M19.7 23.6875C22.3382 23.58 24.8279 22.4374 26.6295 20.5071C28.4311 18.5768 29.3995 16.0144 29.325 13.375C29.3995 10.7356 28.4311 8.1732 26.6295 6.24291C24.8279 4.31263 22.3382 3.16996 19.7 3.0625" stroke="black" stroke-width="2" stroke-linecap="round" stroke-linejoin="round"/>
<path d="M19.7 17.5C20.794 17.5 21.8432 17.0654 22.6168 16.2918C23.3904 15.5182 23.825 14.469 23.825 13.375C23.825 12.281 23.3904 11.2318 22.6168 10.4582C21.8432 9.6846 20.794 9.25 19.7 9.25"/>
<path d="M19.7 17.5C20.794 17.5 21.8432 17.0654 22.6168 16.2918C23.3904 15.5182 23.825 14.469 23.825 13.375C23.825 12.281 23.3904 11.2318 22.6168 10.4582C21.8432 9.6846 20.794 9.25 19.7 9.25" stroke="black" stroke-width="2" stroke-linecap="round" stroke-linejoin="round"/>
</svg>
